<!DOCTYPE svg PUBLIC "-//W3C//DTD SVG 1.1//EN" "http://www.w3.org/Graphics/SVG/1.1/DTD/svg11.dtd">
<!-- Uploaded to: SVG Repo, www.svgrepo.com, Transformed by: SVG Repo Mixer Tools -->
<svg width="800px" height="800px" viewBox="0 0 22 22" version="1.1" xmlns="http://www.w3.org/2000/svg" xmlns:xlink="http://www.w3.org/1999/xlink" fill="#ffffff" stroke="#ffffff">
<g id="SVGRepo_bgCarrier" stroke-width="0"/>
<g id="SVGRepo_tracerCarrier" stroke-linecap="round" stroke-linejoin="round"/>
<g id="SVGRepo_iconCarrier"> <title>file_missing_close [#ffffff]</title> <desc>Created with Sketch.</desc> <defs> </defs> <g id="Page-1" stroke="none" stroke-width="1" fill="none" fill-rule="evenodd"> <g id="Dribbble-Light-Preview" transform="translate(-58.000000, -1559.000000)" fill="#ffffff"> <g id="icons" transform="translate(56.000000, 160.000000)"> <path d="M21.828,1411.14142 L23.828,1411.14142 L23.828,1409.13541 L21.828,1409.13541 L21.828,1411.14142 Z M13.828,1419.1655 L15.828,1419.1655 L15.828,1417.15948 L13.828,1417.15948 L13.828,1419.1655 Z M17.828,1419.1655 L19.828,1419.1655 L19.828,1417.15948 L17.828,1417.15948 L17.828,1419.1655 Z M21.828,1419.1655 L23.828,1419.1655 L23.828,1417.15948 L21.828,1417.15948 L21.828,1419.1655 Z M6.243,1415.32598 L4.828,1416.74423 L3.414,1415.32598 L2,1416.74423 L3.414,1418.16249 L2,1419.58074 L3.414,1421 L4.828,1419.58074 L6.243,1421 L7.657,1419.58074 L6.243,1418.16249 L7.657,1416.74423 L6.243,1415.32598 Z M3.828,1401.11133 L5.828,1401.11133 L5.828,1399.10532 L3.828,1399.10532 L3.828,1401.11133 Z M21.828,1415.15346 L23.828,1415.15346 L23.828,1413.14744 L21.828,1413.14744 L21.828,1415.15346 Z M7.828,1401.11133 L9.828,1401.11133 L9.828,1399.10532 L7.828,1399.10532 L7.828,1401.11133 Z M11.828,1401.11133 L13.828,1401.11133 L13.828,1399.10532 L11.828,1399.10532 L11.828,1401.11133 Z M3.828,1405.12337 L5.828,1405.12337 L5.828,1403.11735 L3.828,1403.11735 L3.828,1405.12337 Z M3.828,1413.14744 L5.828,1413.14744 L5.828,1411.14142 L3.828,1411.14142 L3.828,1413.14744 Z M9.828,1419.1655 L11.828,1419.1655 L11.828,1417.15948 L9.828,1417.15948 L9.828,1419.1655 Z M17.828,1399 L16,1399 L16,1407.02407 L24,1407.02407 L24,1405.12337 L17.828,1399 Z M3.828,1409.13541 L5.828,1409.13541 L5.828,1407.12939 L3.828,1407.12939 L3.828,1409.13541 Z" id="file_missing_close-[#ffffff]"> </path> </g> </g> </g> </g>
</svg>